# xmcd
#
# Track frame offsets: 
#        150
#        16340
#        37242
#        55074
#        81645
#        99348
#        112250
#        142334
#        154028
#        170609
#        183845
#
# Disc length: 2612 seconds
#
# Revision: 0
# Processed by: cddbd v1.5.1PL0 Copyright (c) Steve Scherf et al.
# Submitted via: ExactAudioCopy v0.95a5
#
DISCID=9a0a320b
DTITLE=Михаил Башаков - Информация
DYEAR=2004
DGENRE=Rock
TTITLE0=Последний день 2000 весны
TTITLE1=Герой (хочу быть любимым героем)
TTITLE2=Читающий на ветру
TTITLE3=Философ
TTITLE4=Хорошо
TTITLE5=Темной стороной
TTITLE6=Великий Устюг
TTITLE7=Медита
TTITLE8=Герой 2 (я был когда-то)
TTITLE9=Озорничаю
TTITLE10=Информация
EXTD=
EXTT0=
EXTT1=
EXTT2=
EXTT3=
EXTT4=
EXTT5=
EXTT6=
EXTT7=
EXTT8=
EXTT9=
EXTT10=
PLAYORDER=
